<?xml version="1.0" encoding="UTF-8" standalone="no"?>
<!DOCTYPE svg PUBLIC "-//W3C//DTD SVG 1.1//EN"
 "http://www.w3.org/Graphics/SVG/1.1/DTD/svg11.dtd">
<!-- Generated by graphviz version 2.38.0 (20140413.2041)
 -->
<!-- Title: G Pages: 1 -->
<svg width="367pt" height="460pt"
 viewBox="0.00 0.00 367.00 460.00" xmlns="http://www.w3.org/2000/svg" xmlns:xlink="http://www.w3.org/1999/xlink">
<g id="graph0" class="graph" transform="scale(1 1) rotate(0) translate(4 456)">
<title>G</title>
<polygon fill="white" stroke="none" points="-4,4 -4,-456 363,-456 363,4 -4,4"/>
<g id="clust1" class="cluster"><title>cluster_1</title>
<polygon fill="none" stroke="none" points="99,-356 99,-408 351,-408 351,-356 99,-356"/>
</g>
<g id="clust3" class="cluster"><title>cluster_2</title>
<polygon fill="none" stroke="none" points="99,-252 99,-304 351,-304 351,-252 99,-252"/>
</g>
<g id="clust5" class="cluster"><title>cluster_3</title>
<polygon fill="none" stroke="none" points="99,-148 99,-200 351,-200 351,-148 99,-148"/>
</g>
<g id="clust7" class="cluster"><title>cluster_4</title>
<polygon fill="none" stroke="none" points="99,-44 99,-96 351,-96 351,-44 99,-44"/>
</g>
<!-- step_node_1 -->
<g id="node1" class="node"><title>step_node_1</title>
<polygon fill="none" stroke="black" points="216,-452 0,-452 0,-416 216,-416 216,-452"/>
<text text-anchor="middle" x="108" y="-431.6" font-family="Times,serif" font-size="8.00">Total cohort size (N = 228)</text>
</g>
<!-- invisible_node_1 -->
<g id="node2" class="node"><title>invisible_node_1</title>
<ellipse fill="none" stroke="black" cx="108" cy="-382" rx="0.5" ry="0.5"/>
</g>
<!-- step_node_1&#45;&gt;invisible_node_1 -->
<g id="edge2" class="edge"><title>step_node_1&#45;&gt;invisible_node_1</title>
<path fill="none" stroke="black" d="M108,-415.793C108,-401.782 108,-384.142 108,-383.053"/>
</g>
<!-- exclusion_node_1 -->
<g id="node3" class="node"><title>exclusion_node_1</title>
<polygon fill="none" stroke="black" points="343,-400 127,-400 127,-364 343,-364 343,-400"/>
<text text-anchor="middle" x="235" y="-379.6" font-family="Times,serif" font-size="8.00">Having exclusion criterion: non ECOG (N = 1)</text>
</g>
<!-- invisible_node_1&#45;&gt;exclusion_node_1 -->
<g id="edge1" class="edge"><title>invisible_node_1&#45;&gt;exclusion_node_1</title>
<path fill="none" stroke="black" d="M108.992,-382C111.484,-382 113.976,-382 116.468,-382"/>
<polygon fill="black" stroke="black" points="116.712,-385.5 126.712,-382 116.712,-378.5 116.712,-385.5"/>
</g>
<!-- step_node_2 -->
<g id="node4" class="node"><title>step_node_2</title>
<polygon fill="none" stroke="black" points="216,-348 0,-348 0,-312 216,-312 216,-348"/>
<text text-anchor="middle" x="108" y="-327.6" font-family="Times,serif" font-size="8.00">1. ECOG available (N = 227)</text>
</g>
<!-- invisible_node_1&#45;&gt;step_node_2 -->
<g id="edge3" class="edge"><title>invisible_node_1&#45;&gt;step_node_2</title>
<path fill="none" stroke="black" d="M108,-380.857C108,-379.537 108,-369.311 108,-358.461"/>
<polygon fill="black" stroke="black" points="111.5,-358.137 108,-348.137 104.5,-358.137 111.5,-358.137"/>
</g>
<!-- invisible_node_2 -->
<g id="node5" class="node"><title>invisible_node_2</title>
<ellipse fill="none" stroke="black" cx="108" cy="-278" rx="0.5" ry="0.5"/>
</g>
<!-- step_node_2&#45;&gt;invisible_node_2 -->
<g id="edge5" class="edge"><title>step_node_2&#45;&gt;invisible_node_2</title>
<path fill="none" stroke="black" d="M108,-311.793C108,-297.782 108,-280.142 108,-279.053"/>
</g>
<!-- exclusion_node_2 -->
<g id="node6" class="node"><title>exclusion_node_2</title>
<polygon fill="none" stroke="black" points="343,-296 127,-296 127,-260 343,-260 343,-296"/>
<text text-anchor="middle" x="235" y="-275.6" font-family="Times,serif" font-size="8.00">Having exclusion criterion: missing weight loss (N = 14)</text>
</g>
<!-- invisible_node_2&#45;&gt;exclusion_node_2 -->
<g id="edge4" class="edge"><title>invisible_node_2&#45;&gt;exclusion_node_2</title>
<path fill="none" stroke="black" d="M108.992,-278C111.484,-278 113.976,-278 116.468,-278"/>
<polygon fill="black" stroke="black" points="116.712,-281.5 126.712,-278 116.712,-274.5 116.712,-281.5"/>
</g>
<!-- step_node_3 -->
<g id="node7" class="node"><title>step_node_3</title>
<polygon fill="none" stroke="black" points="216,-244 0,-244 0,-208 216,-208 216,-244"/>
<text text-anchor="middle" x="108" y="-223.6" font-family="Times,serif" font-size="8.00">2. Weight loss data available (N = 213)</text>
</g>
<!-- invisible_node_2&#45;&gt;step_node_3 -->
<g id="edge6" class="edge"><title>invisible_node_2&#45;&gt;step_node_3</title>
<path fill="none" stroke="black" d="M108,-276.857C108,-275.537 108,-265.311 108,-254.461"/>
<polygon fill="black" stroke="black" points="111.5,-254.137 108,-244.137 104.5,-254.137 111.5,-254.137"/>
</g>
<!-- invisible_node_3 -->
<g id="node8" class="node"><title>invisible_node_3</title>
<ellipse fill="none" stroke="black" cx="108" cy="-174" rx="0.5" ry="0.5"/>
</g>
<!-- step_node_3&#45;&gt;invisible_node_3 -->
<g id="edge8" class="edge"><title>step_node_3&#45;&gt;invisible_node_3</title>
<path fill="none" stroke="black" d="M108,-207.793C108,-193.782 108,-176.142 108,-175.053"/>
</g>
<!-- exclusion_node_3 -->
<g id="node9" class="node"><title>exclusion_node_3</title>
<polygon fill="none" stroke="black" points="343,-192 127,-192 127,-156 343,-156 343,-192"/>
<text text-anchor="middle" x="235" y="-176.4" font-family="Times,serif" font-size="8.00">Having exclusion criterion: missing censoring</text>
<text text-anchor="middle" x="235" y="-166.8" font-family="Times,serif" font-size="8.00">status (N = 0)</text>
</g>
<!-- invisible_node_3&#45;&gt;exclusion_node_3 -->
<g id="edge7" class="edge"><title>invisible_node_3&#45;&gt;exclusion_node_3</title>
<path fill="none" stroke="black" d="M108.992,-174C111.484,-174 113.976,-174 116.468,-174"/>
<polygon fill="black" stroke="black" points="116.712,-177.5 126.712,-174 116.712,-170.5 116.712,-177.5"/>
</g>
<!-- step_node_4 -->
<g id="node10" class="node"><title>step_node_4</title>
<polygon fill="none" stroke="black" points="216,-140 0,-140 0,-104 216,-104 216,-140"/>
<text text-anchor="middle" x="108" y="-119.6" font-family="Times,serif" font-size="8.00">3. Non&#45;missing censoring status (N = 213)</text>
</g>
<!-- invisible_node_3&#45;&gt;step_node_4 -->
<g id="edge9" class="edge"><title>invisible_node_3&#45;&gt;step_node_4</title>
<path fill="none" stroke="black" d="M108,-172.857C108,-171.537 108,-161.311 108,-150.461"/>
<polygon fill="black" stroke="black" points="111.5,-150.137 108,-140.137 104.5,-150.137 111.5,-150.137"/>
</g>
<!-- invisible_node_4 -->
<g id="node11" class="node"><title>invisible_node_4</title>
<ellipse fill="none" stroke="black" cx="108" cy="-70" rx="0.5" ry="0.5"/>
</g>
<!-- step_node_4&#45;&gt;invisible_node_4 -->
<g id="edge11" class="edge"><title>step_node_4&#45;&gt;invisible_node_4</title>
<path fill="none" stroke="black" d="M108,-103.793C108,-89.7816 108,-72.1418 108,-71.053"/>
</g>
<!-- exclusion_node_4 -->
<g id="node12" class="node"><title>exclusion_node_4</title>
<polygon fill="none" stroke="black" points="343,-88 127,-88 127,-52 343,-52 343,-88"/>
<text text-anchor="middle" x="235" y="-72.4" font-family="Times,serif" font-size="8.00">Having exclusion criterion: negative follow up</text>
<text text-anchor="middle" x="235" y="-62.8" font-family="Times,serif" font-size="8.00">time (N = 0)</text>
</g>
<!-- invisible_node_4&#45;&gt;exclusion_node_4 -->
<g id="edge10" class="edge"><title>invisible_node_4&#45;&gt;exclusion_node_4</title>
<path fill="none" stroke="black" d="M108.992,-70C111.484,-70 113.976,-70 116.468,-70"/>
<polygon fill="black" stroke="black" points="116.712,-73.5001 126.712,-70 116.712,-66.5001 116.712,-73.5001"/>
</g>
<!-- step_node_5 -->
<g id="node13" class="node"><title>step_node_5</title>
<polygon fill="none" stroke="black" points="216,-36 0,-36 0,-0 216,-0 216,-36"/>
<text text-anchor="middle" x="108" y="-15.6" font-family="Times,serif" font-size="8.00">4. Positive follow up time (N = 213)</text>
</g>
<!-- invisible_node_4&#45;&gt;step_node_5 -->
<g id="edge12" class="edge"><title>invisible_node_4&#45;&gt;step_node_5</title>
<path fill="none" stroke="black" d="M108,-68.8566C108,-67.537 108,-57.3111 108,-46.4609"/>
<polygon fill="black" stroke="black" points="111.5,-46.1372 108,-36.1372 104.5,-46.1372 111.5,-46.1372"/>
</g>
</g>
</svg>

